<mxfile host="app.diagrams.net" modified="2023-03-01T09:57:46.929Z" agent="5.0 (Windows NT 10.0; Win64; x64) AppleWebKit/537.36 (KHTML, like Gecko) Chrome/109.0.0.0 Safari/537.36" etag="GRBmQfZy4nn7dxf1anfG" version="20.8.23" type="github">
  <diagram name="Page-1" id="TVKqwtygR2jtkVOvne77">
    <mxGraphModel dx="1562" dy="837" grid="1" gridSize="10" guides="1" tooltips="1" connect="1" arrows="1" fold="1" page="1" pageScale="1" pageWidth="3300" pageHeight="4681" math="0" shadow="0">
      <root>
        <mxCell id="0" />
        <mxCell id="1" parent="0" />
        <mxCell id="2WHvH8ilRGJesVWR_XoT-2" value="AEF" style="swimlane;whiteSpace=wrap;html=1;fillColor=#fff2cc;strokeColor=#d6b656;" parent="1" vertex="1">
          <mxGeometry x="120" y="120" width="370" height="150" as="geometry" />
        </mxCell>
        <mxCell id="2WHvH8ilRGJesVWR_XoT-5" value="mfe&lt;br style=&quot;border-color: var(--border-color);&quot;&gt;&lt;b&gt;Chevauchement&lt;/b&gt;" style="rounded=1;whiteSpace=wrap;html=1;dashed=1;strokeWidth=2;" parent="2WHvH8ilRGJesVWR_XoT-2" vertex="1">
          <mxGeometry x="140" y="40" width="120" height="60" as="geometry" />
        </mxCell>
        <mxCell id="2WHvH8ilRGJesVWR_XoT-6" value="mfe&lt;br style=&quot;border-color: var(--border-color);&quot;&gt;&lt;b&gt;Utilisateur&lt;/b&gt;" style="rounded=1;whiteSpace=wrap;html=1;dashed=1;strokeWidth=2;" parent="2WHvH8ilRGJesVWR_XoT-2" vertex="1">
          <mxGeometry x="30" y="40" width="80" height="60" as="geometry" />
        </mxCell>
        <mxCell id="2WHvH8ilRGJesVWR_XoT-7" value="CEJ" style="swimlane;whiteSpace=wrap;html=1;fillColor=#dae8fc;strokeColor=#6c8ebf;" parent="1" vertex="1">
          <mxGeometry x="560" y="120" width="360" height="150" as="geometry" />
        </mxCell>
        <mxCell id="2WHvH8ilRGJesVWR_XoT-8" value="mfe&lt;br style=&quot;border-color: var(--border-color);&quot;&gt;&lt;b&gt;Plusieurs modules&lt;/b&gt;" style="rounded=1;whiteSpace=wrap;html=1;dashed=1;strokeWidth=2;" parent="2WHvH8ilRGJesVWR_XoT-7" vertex="1">
          <mxGeometry x="140" y="40" width="120" height="60" as="geometry" />
        </mxCell>
        <mxCell id="2WHvH8ilRGJesVWR_XoT-9" value="mfe&lt;br style=&quot;border-color: var(--border-color);&quot;&gt;&lt;b&gt;Dossier&lt;/b&gt;" style="rounded=1;whiteSpace=wrap;html=1;dashed=1;strokeWidth=2;" parent="2WHvH8ilRGJesVWR_XoT-7" vertex="1">
          <mxGeometry x="30" y="40" width="80" height="60" as="geometry" />
        </mxCell>
        <mxCell id="2WHvH8ilRGJesVWR_XoT-11" value="PORTAIL" style="swimlane;whiteSpace=wrap;html=1;fillColor=#e1d5e7;strokeColor=#9673a6;" parent="1" vertex="1">
          <mxGeometry x="300" y="390" width="880" height="280" as="geometry" />
        </mxCell>
        <mxCell id="2WHvH8ilRGJesVWR_XoT-12" value="mfe&lt;br style=&quot;border-color: var(--border-color);&quot;&gt;&lt;b&gt;Plusieurs modules&lt;/b&gt;" style="rounded=1;whiteSpace=wrap;html=1;dashed=1;strokeWidth=2;" parent="2WHvH8ilRGJesVWR_XoT-11" vertex="1">
          <mxGeometry x="401" y="130" width="120" height="60" as="geometry" />
        </mxCell>
        <mxCell id="2WHvH8ilRGJesVWR_XoT-13" value="mfe&lt;br style=&quot;border-color: var(--border-color);&quot;&gt;&lt;b&gt;Utilisateur&lt;/b&gt;" style="rounded=1;whiteSpace=wrap;html=1;dashed=1;strokeWidth=2;" parent="2WHvH8ilRGJesVWR_XoT-11" vertex="1">
          <mxGeometry x="30" y="130" width="80" height="60" as="geometry" />
        </mxCell>
        <mxCell id="2WHvH8ilRGJesVWR_XoT-19" value="&lt;font color=&quot;#ffffff&quot;&gt;&lt;b&gt;Gestion utilisateur&lt;/b&gt;&lt;/font&gt;" style="rounded=0;whiteSpace=wrap;html=1;fillColor=#0000FF;" parent="2WHvH8ilRGJesVWR_XoT-11" vertex="1">
          <mxGeometry x="260" y="36" width="120" height="30" as="geometry" />
        </mxCell>
        <mxCell id="2WHvH8ilRGJesVWR_XoT-20" value="&lt;font color=&quot;#ffffff&quot;&gt;&lt;b&gt;CEJ&lt;/b&gt;&lt;/font&gt;" style="rounded=0;whiteSpace=wrap;html=1;fillColor=#0000FF;" parent="2WHvH8ilRGJesVWR_XoT-11" vertex="1">
          <mxGeometry x="401" y="35" width="120" height="30" as="geometry" />
        </mxCell>
        <mxCell id="2WHvH8ilRGJesVWR_XoT-26" value="&lt;font size=&quot;1&quot; color=&quot;#000000&quot;&gt;&lt;b style=&quot;font-size: 14px;&quot;&gt;(1) Click&lt;/b&gt;&lt;/font&gt;" style="text;strokeColor=none;fillColor=none;align=left;verticalAlign=middle;spacingLeft=4;spacingRight=4;overflow=hidden;points=[[0,0.5],[1,0.5]];portConstraint=eastwest;rotatable=0;whiteSpace=wrap;html=1;fontColor=#FFFFFF;" parent="2WHvH8ilRGJesVWR_XoT-11" vertex="1">
          <mxGeometry x="60" y="20" width="90" height="30" as="geometry" />
        </mxCell>
        <mxCell id="2WHvH8ilRGJesVWR_XoT-27" value="" style="endArrow=none;dashed=1;html=1;rounded=0;strokeWidth=4;fontColor=#000000;exitX=0.5;exitY=1;exitDx=0;exitDy=0;edgeStyle=orthogonalEdgeStyle;" parent="2WHvH8ilRGJesVWR_XoT-11" source="2WHvH8ilRGJesVWR_XoT-19" target="2WHvH8ilRGJesVWR_XoT-13" edge="1">
          <mxGeometry width="50" height="50" relative="1" as="geometry">
            <mxPoint x="390" y="40" as="sourcePoint" />
            <mxPoint x="440" y="-10" as="targetPoint" />
          </mxGeometry>
        </mxCell>
        <mxCell id="2WHvH8ilRGJesVWR_XoT-29" value="&lt;font size=&quot;1&quot; color=&quot;#000000&quot;&gt;&lt;b style=&quot;font-size: 14px;&quot;&gt;(2) Charger le mfe&lt;/b&gt;&lt;/font&gt;" style="text;strokeColor=none;fillColor=none;align=left;verticalAlign=middle;spacingLeft=4;spacingRight=4;overflow=hidden;points=[[0,0.5],[1,0.5]];portConstraint=eastwest;rotatable=0;whiteSpace=wrap;html=1;fontColor=#FFFFFF;" parent="2WHvH8ilRGJesVWR_XoT-11" vertex="1">
          <mxGeometry x="130" y="70" width="140" height="30" as="geometry" />
        </mxCell>
        <mxCell id="JjIqwXst3eVOKthiPZqN-1" value="" style="endArrow=none;dashed=1;html=1;rounded=0;strokeWidth=4;fontColor=#000000;exitX=0.5;exitY=1;exitDx=0;exitDy=0;edgeStyle=orthogonalEdgeStyle;" edge="1" parent="2WHvH8ilRGJesVWR_XoT-11" source="2WHvH8ilRGJesVWR_XoT-20" target="2WHvH8ilRGJesVWR_XoT-12">
          <mxGeometry width="50" height="50" relative="1" as="geometry">
            <mxPoint x="330" y="76" as="sourcePoint" />
            <mxPoint x="80" y="140" as="targetPoint" />
          </mxGeometry>
        </mxCell>
        <mxCell id="JjIqwXst3eVOKthiPZqN-23" value="BI" style="swimlane;fontStyle=1;childLayout=stackLayout;horizontal=1;startSize=30;horizontalStack=0;resizeParent=1;resizeParentMax=0;resizeLast=0;collapsible=1;marginBottom=0;align=center;fontSize=14;fontColor=#FFFFFF;fillColor=#0000FF;strokeColor=#CCCCCC;" vertex="1" parent="2WHvH8ilRGJesVWR_XoT-11">
          <mxGeometry x="700" y="36" width="160" height="90" as="geometry" />
        </mxCell>
        <mxCell id="JjIqwXst3eVOKthiPZqN-24" value="&gt; Individu" style="text;strokeColor=#CCCCCC;fillColor=#F2F2F2;spacingLeft=4;spacingRight=4;overflow=hidden;rotatable=0;points=[[0,0.5],[1,0.5]];portConstraint=eastwest;fontSize=12;fontColor=#000000;fillStyle=solid;fontStyle=1" vertex="1" parent="JjIqwXst3eVOKthiPZqN-23">
          <mxGeometry y="30" width="160" height="30" as="geometry" />
        </mxCell>
        <mxCell id="JjIqwXst3eVOKthiPZqN-26" value="&gt; Autres fonctionnalitÃ©s ..." style="text;strokeColor=#666666;fillColor=#f5f5f5;spacingLeft=4;spacingRight=4;overflow=hidden;rotatable=0;points=[[0,0.5],[1,0.5]];portConstraint=eastwest;fontSize=12;fontColor=#333333;dashed=1;" vertex="1" parent="JjIqwXst3eVOKthiPZqN-23">
          <mxGeometry y="60" width="160" height="30" as="geometry" />
        </mxCell>
        <mxCell id="JjIqwXst3eVOKthiPZqN-28" value="mfe&lt;br style=&quot;border-color: var(--border-color);&quot;&gt;&lt;b&gt;Individu&lt;/b&gt;" style="rounded=1;whiteSpace=wrap;html=1;dashed=1;strokeWidth=2;" vertex="1" parent="2WHvH8ilRGJesVWR_XoT-11">
          <mxGeometry x="740" y="190" width="80" height="60" as="geometry" />
        </mxCell>
        <mxCell id="2WHvH8ilRGJesVWR_XoT-14" value="BI" style="swimlane;whiteSpace=wrap;html=1;fillColor=#d5e8d4;strokeColor=#82b366;" parent="1" vertex="1">
          <mxGeometry x="1000" y="120" width="360" height="150" as="geometry" />
        </mxCell>
        <mxCell id="2WHvH8ilRGJesVWR_XoT-16" value="mfe&lt;br style=&quot;border-color: var(--border-color);&quot;&gt;&lt;b&gt;Individu&lt;/b&gt;" style="rounded=1;whiteSpace=wrap;html=1;dashed=1;strokeWidth=2;" parent="2WHvH8ilRGJesVWR_XoT-14" vertex="1">
          <mxGeometry x="30" y="40" width="80" height="60" as="geometry" />
        </mxCell>
        <mxCell id="2WHvH8ilRGJesVWR_XoT-23" value="Actor" style="shape=umlActor;verticalLabelPosition=bottom;verticalAlign=top;html=1;outlineConnect=0;fontColor=#FFFFFF;fillColor=#0000FF;" parent="1" vertex="1">
          <mxGeometry x="210" y="416" width="20" height="50" as="geometry" />
        </mxCell>
        <mxCell id="2WHvH8ilRGJesVWR_XoT-25" value="" style="endArrow=classic;html=1;rounded=0;fontColor=#FFFFFF;entryX=0;entryY=0.5;entryDx=0;entryDy=0;strokeWidth=2;" parent="1" target="2WHvH8ilRGJesVWR_XoT-19" edge="1">
          <mxGeometry width="50" height="50" relative="1" as="geometry">
            <mxPoint x="240" y="440" as="sourcePoint" />
            <mxPoint x="550" y="330" as="targetPoint" />
          </mxGeometry>
        </mxCell>
        <mxCell id="JjIqwXst3eVOKthiPZqN-2" value="" style="endArrow=none;dashed=1;html=1;rounded=0;strokeWidth=4;fontColor=#000000;exitX=0;exitY=0.5;exitDx=0;exitDy=0;edgeStyle=orthogonalEdgeStyle;entryX=0;entryY=0.5;entryDx=0;entryDy=0;startArrow=none;" edge="1" parent="1" source="JjIqwXst3eVOKthiPZqN-3" target="2WHvH8ilRGJesVWR_XoT-13">
          <mxGeometry width="50" height="50" relative="1" as="geometry">
            <mxPoint x="630" y="466" as="sourcePoint" />
            <mxPoint x="380" y="530" as="targetPoint" />
          </mxGeometry>
        </mxCell>
        <mxCell id="JjIqwXst3eVOKthiPZqN-4" value="" style="endArrow=none;dashed=1;html=1;rounded=0;strokeWidth=4;fontColor=#000000;exitX=0;exitY=0.5;exitDx=0;exitDy=0;edgeStyle=orthogonalEdgeStyle;entryX=0;entryY=0.5;entryDx=0;entryDy=0;" edge="1" parent="1" source="2WHvH8ilRGJesVWR_XoT-6" target="JjIqwXst3eVOKthiPZqN-3">
          <mxGeometry width="50" height="50" relative="1" as="geometry">
            <mxPoint x="150" y="190" as="sourcePoint" />
            <mxPoint x="330" y="550" as="targetPoint" />
            <Array as="points">
              <mxPoint x="50" y="190" />
              <mxPoint x="50" y="355" />
            </Array>
          </mxGeometry>
        </mxCell>
        <mxCell id="JjIqwXst3eVOKthiPZqN-3" value="&lt;font size=&quot;1&quot; color=&quot;#000000&quot;&gt;&lt;b style=&quot;font-size: 14px;&quot;&gt;(3) Charger le .js de le mfe&lt;/b&gt;&lt;/font&gt;" style="text;strokeColor=none;fillColor=none;align=left;verticalAlign=middle;spacingLeft=4;spacingRight=4;overflow=hidden;points=[[0,0.5],[1,0.5]];portConstraint=eastwest;rotatable=0;whiteSpace=wrap;html=1;fontColor=#FFFFFF;" vertex="1" parent="1">
          <mxGeometry x="60" y="340" width="190" height="30" as="geometry" />
        </mxCell>
        <mxCell id="JjIqwXst3eVOKthiPZqN-27" value="" style="endArrow=none;dashed=1;html=1;rounded=0;strokeWidth=4;fontColor=#000000;exitX=0;exitY=0.5;exitDx=0;exitDy=0;edgeStyle=orthogonalEdgeStyle;" edge="1" parent="1" source="JjIqwXst3eVOKthiPZqN-24">
          <mxGeometry width="50" height="50" relative="1" as="geometry">
            <mxPoint x="630" y="466" as="sourcePoint" />
            <mxPoint x="1080" y="580" as="targetPoint" />
          </mxGeometry>
        </mxCell>
      </root>
    </mxGraphModel>
  </diagram>
</mxfile>
